<?xml version="1.0" encoding="iso-8859-1"?>
<!-- Uploaded to: SVG Repo, www.svgrepo.com, Generator: SVG Repo Mixer Tools -->
<svg fill="#000000" height="800px" width="800px" version="1.1" id="Layer_1" xmlns="http://www.w3.org/2000/svg" xmlns:xlink="http://www.w3.org/1999/xlink" 
	 viewBox="0 0 511.998 511.998" xml:space="preserve">
<g>
	<g>
		<g>
			<path d="M494.105,289.252h-6.882l-2.8-23.6c-2.181-19.9-16.416-33.797-34.616-33.797h-49.219l-29.943-47.425
				c-9.307-14.744-30.257-26.294-47.694-26.294h-46.386c0.124-0.869,0.211-1.749,0.211-2.652v-14.395
				c0-10.235-8.327-18.563-18.563-18.563H206.72c-10.235,0-18.563,8.328-18.563,18.563v14.395c0,0.903,0.087,1.783,0.212,2.652
				h-54.144c-18.339,0-36.663,13.81-41.717,31.438l-12.117,42.28H55.783c-19.114,0-34.665,15.551-34.665,34.665v22.734h-3.226
				C8.027,289.252,0,297.28,0,307.147v16.15c0,9.867,8.027,17.894,17.893,17.894h22.362c8.05,0,14.872-5.345,17.112-12.672h11.396
				c0.451,33.685,27.977,60.954,61.766,60.954c33.789,0,61.316-27.268,61.766-60.954h113.33
				c0.451,33.685,27.977,60.954,61.767,60.954c33.79,0,61.317-27.268,61.767-60.954h25.474c2.24,7.327,9.061,12.672,17.111,12.672
				h22.36c9.867,0,17.895-8.027,17.895-17.894v-16.15C512,297.28,503.971,289.252,494.105,289.252z M204.068,141.089
				L204.068,141.089c0-1.437,1.215-2.652,2.652-2.652h51.493c1.437,0,2.652,1.215,2.652,2.652v14.395
				c0,1.437-1.215,2.652-2.652,2.652H206.72c-1.437,0-2.652-1.215-2.652-2.652V141.089z M42.237,323.297
				c0,1.075-0.907,1.982-1.982,1.982H17.893c-1.075,0-1.982-0.908-1.982-1.982v-16.15c0-1.076,0.907-1.984,1.982-1.984h22.362
				c1.076,0,1.983,0.908,1.983,1.984V323.297z M56.49,289.252H37.03v-10.054h19.46V289.252z M58.148,312.608v-5.461
				c0-0.67-0.045-1.331-0.116-1.984h2.685c6.442,0,11.684-5.24,11.684-11.682v-18.512c0-6.442-5.241-11.682-11.684-11.682H37.328
				c1.538-8.803,9.218-15.523,18.455-15.523h47.946c-0.015,6.17,0.198,14.489,1.462,23.589
				c-17.008,7.682-29.944,22.83-34.581,41.254H58.148z M130.529,373.561c-25.297,0-45.876-20.581-45.876-45.876
				c0-25.297,20.579-45.876,45.876-45.876s45.876,20.579,45.876,45.876C176.405,352.981,155.824,373.561,130.529,373.561z
				 M190.447,312.608c-6.747-26.805-31.049-46.711-59.918-46.711c-3.366,0-6.667,0.281-9.887,0.801
				c-1.161-9.842-1.029-18.649-0.947-23.898c0.018-1.171,0.033-2.177,0.033-2.991c0-4.394-3.561-7.956-7.956-7.956H96.944
				l10.861-37.896c3.094-10.793,15.193-19.911,26.421-19.911h188.725c11.892,0,27.892,8.82,34.24,18.876l31.053,49.187v27.418
				c-6.518-2.344-13.537-3.63-20.852-3.63c-28.87,0-53.172,19.906-59.919,46.711H190.447z M367.392,373.561
				c-25.297,0-45.877-20.581-45.877-45.876c0-25.297,20.581-45.876,45.877-45.876s45.877,20.579,45.877,45.876
				C413.269,352.981,392.689,373.561,367.392,373.561z M453.851,307.147v5.461h-26.54c-3.531-14.028-11.869-26.165-23.156-34.549
				v-30.294h45.65c7.385,0,15.343,4.834,18.047,15.523h-25.485c-6.442,0-11.683,5.24-11.683,11.682v18.512
				c0,6.442,5.241,11.682,11.683,11.682h11.6C453.895,305.816,453.851,306.477,453.851,307.147z M446.596,289.252v-10.054h23.411
				l1.192,10.054H446.596z M496.089,323.297c0,1.075-0.908,1.982-1.984,1.982h-22.36c-1.075,0-1.981-0.908-1.981-1.982v-16.15
				c0-1.076,0.907-1.984,1.981-1.984h22.36c1.076,0,1.984,0.908,1.984,1.984V323.297z"/>
			<path d="M130.529,292.443c-19.432,0-35.242,15.809-35.242,35.241s15.809,35.241,35.242,35.241
				c19.432,0,35.242-15.809,35.242-35.241C165.77,308.252,149.961,292.443,130.529,292.443z M130.529,347.014
				c-10.659,0-19.331-8.672-19.331-19.33c0-10.658,8.672-19.33,19.331-19.33s19.331,8.672,19.331,19.33
				C149.859,338.343,141.187,347.014,130.529,347.014z"/>
			<path d="M348.747,253.714c0-4.394-3.561-7.956-7.956-7.956h-56.585c-4.395,0-7.956,3.562-7.956,7.956s3.561,7.956,7.956,7.956
				h56.585C345.186,261.67,348.747,258.109,348.747,253.714z"/>
			<path d="M262.699,257.118l-13.306-3.922c-0.26-0.127-0.711-0.455-0.911-0.664l-7.844-11.445
				c-1.996-2.909-5.067-4.577-8.427-4.577c-3.357,0-6.429,1.667-8.43,4.581l-7.841,11.441c-0.201,0.208-0.65,0.536-0.91,0.663
				l-13.308,3.923c-3.385,0.998-5.923,3.404-6.963,6.601c-1.038,3.197-0.401,6.635,1.752,9.433l8.459,10.992
				c0.136,0.255,0.308,0.784,0.348,1.069l-0.381,13.876c-0.077,2.899,0.94,5.586,2.865,7.563c1.871,1.922,4.403,2.98,7.131,2.98
				c1.223,0,2.449-0.215,3.643-0.64l13.073-4.648c0.189-0.031,0.933-0.031,1.122,0l13.073,4.647c1.193,0.424,2.418,0.64,3.644,0.64
				c2.728,0,5.262-1.06,7.135-2.982c1.924-1.979,2.941-4.665,2.862-7.566l-0.382-13.866c0.04-0.285,0.211-0.814,0.346-1.068
				l8.462-10.998c2.152-2.798,2.792-6.237,1.752-9.434C268.622,260.521,266.084,258.115,262.699,257.118z M246.769,274.535
				c-2.237,2.902-3.674,7.318-3.576,10.996l0.156,5.689l-5.357-1.904c-2.131-0.761-4.32-0.92-5.782-0.92
				c-1.462,0-3.65,0.159-5.776,0.917l-5.364,1.907l0.156-5.685c0.103-3.666-1.331-8.083-3.569-10.994l-3.47-4.509l5.454-1.608
				c3.513-1.034,7.27-3.76,9.352-6.792l3.217-4.695l3.22,4.699c2.075,3.023,5.83,5.75,9.344,6.787l5.459,1.609L246.769,274.535z"/>
			<path d="M184.188,245.759H138.21c-4.395,0-7.956,3.562-7.956,7.956s3.561,7.956,7.956,7.956h45.978
				c4.395,0,7.956-3.562,7.956-7.956S188.581,245.759,184.188,245.759z"/>
			<path d="M367.392,292.443c-19.433,0-35.244,15.809-35.244,35.241s15.81,35.241,35.244,35.241
				c19.432,0,35.242-15.809,35.242-35.241C402.634,308.252,386.825,292.443,367.392,292.443z M367.392,347.014
				c-10.66,0-19.333-8.672-19.333-19.33c0-10.658,8.673-19.33,19.333-19.33c10.659,0,19.331,8.672,19.331,19.33
				C386.723,338.343,378.051,347.014,367.392,347.014z"/>
			<path d="M252.995,239.28h99.548c5.791,0,10.452-2.469,12.786-6.775c2.335-4.306,1.863-9.558-1.296-14.411l-16.531-25.408
				c-4.641-7.13-14.554-12.507-23.061-12.507h-71.445c-10.235,0-18.563,8.328-18.563,18.563v21.974
				C234.432,230.952,242.759,239.28,252.995,239.28z M250.343,198.742L250.343,198.742c0-1.437,1.215-2.652,2.652-2.652h71.445
				c3.118,0,8.025,2.662,9.725,5.274l14.316,22.004h-95.486c-1.437,0-2.652-1.215-2.652-2.652V198.742z"/>
			<path d="M209.895,239.28L209.895,239.28c10.235,0,18.563-8.328,18.563-18.563v-21.974c0-10.235-8.328-18.563-18.563-18.563
				h-60.307c-9.354,0-18.566,6.716-21.427,15.618l-7.393,22.993c-1.639,5.095-0.922,10.29,1.967,14.253
				c2.89,3.963,7.615,6.236,12.968,6.236H209.895z M143.309,200.666c0.729-2.267,3.898-4.576,6.28-4.576h60.307
				c1.437,0,2.652,1.215,2.652,2.652v21.974c0,1.437-1.215,2.652-2.652,2.652H136.01L143.309,200.666z"/>
		</g>
	</g>
</g>
</svg>